<?xml version="1.0" encoding="UTF-8"?>
<svg width="816px" height="184px" viewBox="0 0 816 184" version="1.1" xmlns="http://www.w3.org/2000/svg" xmlns:xlink="http://www.w3.org/1999/xlink">
    <!-- Generator: Sketch 52.4 (67378) - http://www.bohemiancoding.com/sketch -->
    <title>分组</title>
    <desc>Created with Sketch.</desc>
    <g id="Symbols" stroke="none" stroke-width="1" fill="none" fill-rule="evenodd">
        <g id="F+FUTU-白" fill="#FFFFFF">
            <g id="分组">
                <path d="M296.3935,41.0865 C281.3335,41.0865 269.104,53.3265 269.104,68.4515 L269.104,85.6205 L357.9975,85.6205 L357.9975,86.887 C357.9975,96.7155 350.038,104.6825 340.2395,104.6825 L269.104,104.6825 L269.104,125.0415 C269.104,145.407 252.6395,161.9375 232.311,161.9375 L231,161.9375 L231,69.0595 C231,43.083 252.032,22 277.9975,22 L357.9975,22 L357.9975,23.303 C357.9975,33.1015 350.038,41.0865 340.2395,41.0865 L296.3935,41.0865 Z M504.00995,22.00005 C507.52195,22.00005 510.37795,24.87305 510.37795,28.35455 L510.37795,155.56405 C510.37795,159.08805 507.52195,161.93755 504.00995,161.93755 L430.37845,161.93755 C404.41295,161.93755 383.37895,140.88455 383.37895,114.87805 L383.37895,28.35455 C383.37895,24.87305 386.24695,22.00005 389.74695,22.00005 L415.12895,22.00005 C418.64045,22.00005 421.48345,24.87305 421.48345,28.35455 L421.48345,115.51605 C421.48345,130.60455 433.69545,142.85005 448.79245,142.85005 L472.28495,142.85005 L472.28495,28.35455 C472.28495,24.87305 475.09195,22.00005 478.64645,22.00005 L504.00995,22.00005 Z M808.77095,22.00005 C812.28345,22.00005 815.13895,24.87305 815.13895,28.35455 L815.13895,155.56405 C815.13895,159.08805 812.28345,161.93755 808.77095,161.93755 L735.13945,161.93755 C709.17395,161.93755 688.14045,140.88455 688.14045,114.87805 L688.14045,28.35455 C688.14045,24.87305 691.00845,22.00005 694.50845,22.00005 L719.89045,22.00005 C723.40145,22.00005 726.24445,24.87305 726.24445,28.35455 L726.24445,115.51605 C726.24445,130.60455 738.45645,142.85005 753.55395,142.85005 L777.04595,142.85005 L777.04595,28.35455 C777.04595,24.87305 779.85295,22.00005 783.40745,22.00005 L808.77095,22.00005 Z M542.0842,22.00005 L662.7462,22.00005 L662.7462,23.30255 C662.7462,33.10155 654.7742,41.08655 644.9807,41.08655 L618.3172,41.08655 L618.3172,155.56405 C618.3172,159.08805 615.4797,161.93755 611.9682,161.93755 L586.5737,161.93755 C583.0437,161.93755 580.1947,159.08805 580.1947,155.56405 L580.1947,41.08655 L542.0842,41.08655 C538.5907,41.08655 535.7597,38.25055 535.7597,34.73955 L535.7597,28.35455 C535.7597,24.87305 538.5907,22.00005 542.0842,22.00005 Z" id="Combined-Shape"></path>
                <g id="F-白">
                    <g id="Combined-Shape">
                        <path d="M172.290909,0 C178.401107,0 184,5.60214017 184,11.7090909 L184,172.290909 C184,178.39786 178.401107,184 172.290909,184 L11.7090909,184 C5.60224212,184 0,178.39786 0,172.290909 L0,11.7090909 C0,5.60214017 5.60224212,0 11.7090909,0 L172.290909,0 Z M152.218182,56.8727273 L152.218182,33.4545455 C152.218182,31.9409105 150.386362,30.1090909 148.872727,30.1090909 L110.4,30.1090909 L75.2727273,30.1090909 C50.5422053,30.1090909 30.1090909,50.5422053 30.1090909,75.2727273 L30.1090909,148.872727 C30.1090909,150.386362 31.9409105,152.218182 33.4545455,152.218182 L56.8727273,152.218182 C58.8386825,152.218182 60.6705021,150.386362 60.2181818,148.872727 L60.2181818,83.6363636 C60.6705021,70.8620799 70.8620799,60.6705021 83.6363636,60.2181818 L148.872727,60.2181818 C150.386362,60.6705021 152.218182,58.835352 152.218182,56.8727273 Z M122.109091,118.763636 L122.109091,95.3454545 C122.109091,93.8114679 120.29782,92 118.763636,92 L107.054545,92 L95.3454545,92 C93.8145518,92 92,93.8114679 92,95.3454545 L92,118.763636 C92,120.297623 93.8145518,122.109091 95.3454545,122.109091 L118.763636,122.109091 C120.29782,122.109091 122.109091,120.297623 122.109091,118.763636 Z"></path>
                    </g>
                </g>
            </g>
        </g>
    </g>
</svg>
